PathFileType	4	(X/Y/Z)	..\data\2014015\dynamic\2014015_C5_03.trc
DataRate	CameraRate	NumFrames	NumMarkers	Units	OrigDataRate	OrigDataStartFrame	OrigNumFrames
100.000000	100.000000	4	52	mm	100.000000	101	163
Frame#	Time	L_IAS			L_IPS			R_IPS			R_IAS			L_FTC			L_FLE			L_FME			L_FAX			L_TTC			L_FAL			L_TAM			L_FCC			L_FM1			L_FM2			L_FM5			R_FTC			R_FLE			R_FME			R_FAX			R_TTC			R_FAL			R_TAM			R_FCC			R_FM1			R_FM2			R_FM5			CV7			TV10			SXS			SJN			L_SIA			L_SRS			L_SAA			L_SAE			L_HLE			L_HME			L_UOA			L_RSP			L_UHE			L_HM2			L_HM5			R_SIA			R_SRS			R_SAA			R_SAE			R_HLE			R_HME			R_UOA			R_RSP			R_UHE			R_HM2			R_HM5			
		X1	Y1	Z1	X2	Y2	Z2	X3	Y3	Z3	X4	Y4	Z4	X5	Y5	Z5	X6	Y6	Z6	X7	Y7	Z7	X8	Y8	Z8	X9	Y9	Z9	X10	Y10	Z10	X11	Y11	Z11	X12	Y12	Z12	X13	Y13	Z13	X14	Y14	Z14	X15	Y15	Z15	X16	Y16	Z16	X17	Y17	Z17	X18	Y18	Z18	X19	Y19	Z19	X20	Y20	Z20	X21	Y21	Z21	X22	Y22	Z22	X23	Y23	Z23	X24	Y24	Z24	X25	Y25	Z25	X26	Y26	Z26	X27	Y27	Z27	X28	Y28	Z28	X29	Y29	Z29	X30	Y30	Z30	X31	Y31	Z31	X32	Y32	Z32	X33	Y33	Z33	X34	Y34	Z34	X35	Y35	Z35	X36	Y36	Z36	X37	Y37	Z37	X38	Y38	Z38	X39	Y39	Z39	X40	Y40	Z40	X41	Y41	Z41	X42	Y42	Z42	X43	Y43	Z43	X44	Y44	Z44	X45	Y45	Z45	X46	Y46	Z46	X47	Y47	Z47	X48	Y48	Z48	X49	Y49	Z49	X50	Y50	Z50	X51	Y51	Z51	X52	Y52	Z52	

102	1.01	87.95957946777344	818.126159667969	89.92275238037112	-113.9556274414063	849.3183593750002	205.777084350586	-107.0768661499024	843.250671386719	301.7378540039063	118.9866943359375	818.597595214844	355.8332824707032	-8.771262168884284	753.5740966796876	43.45264434814454	-103.8058547973633	419.0346984863282	115.3965911865235	-84.83416748046879	414.2384338378907	255.0494079589844	-132.9631500244141	370.6185302734376	112.8277282714844	-74.54348754882815	356.5162963867188	161.7539672851563	-270.3060913085938	103.6345291137696	151.6178741455078	-244.3153228759766	108.3877410888672	239.3741149902344	-318.3600769042969	77.18862915039064	196.5791320800782	-147.8728942871094	16.8745346069336	233.6663055419922	-131.4689636230469	35.59843444824219	178.2226867675781	-178.0827636718751	23.64694213867188	121.250602722168	62.04941558837887	725.6247558593751	416.6443786621095	176.094482421875	409.0958251953126	354.3159179687501	208.9385528564453	404.4468688964845	214.5662841796876	198.1067352294922	362.1860961914063	354.3140258789063	254.9525299072266	383.3710937500001	295.6558532714845	306.4713439941406	64.22293853759767	314.6740722656251	329.4348754882812	105.7205047607422	234.5036773681641	292.731689453125	18.75144004821778	263.5800170898439	454.2743530273438	99.59943389892581	243.9709625244142	455.1400756835938	111.1777420043946	296.7658081054689	416.6259765625001	73.49292755126955	338.1140441894532	-46.41010284423832	1293.127807617188	230.152328491211	-113.1964111328126	1103.195434570313	221.5456542968751	131.7711791992188	1007.650817871094	231.652069091797	82.02292633056639	1221.828002929688	233.1468811035157	-112.2482147216797	1131.045043945313	148.2743377685547	-71.64872741699222	1250.689819335938	150.2731475830078	-34.03053283691408	1258.564208984375	91.47750091552736	26.28610038757324	1248.986083984375	54.44838333129884	20.32628822326661	985.6621093750002	-25.68577957153321	-10.95802783966065	953.9177246093752	54.56371307373048	-13.56254768371582	950.7734375000002	4.75880479812622	152.0867919921875	808.0158691406252	-3.023217439651471	97.70329284667973	789.6292114257815	-60.04341125488281	207.6476440429688	739.2487182617189	-24.69760513305662	128.2335968017578	716.4882812500001	-72.81381225585938	-117.0636672973634	1125.635009765625	320.1997375488282	-75.97745513916021	1247.4521484375	311.8865966796876	-52.14599609375006	1251.328735351563	370.4163208007813	22.65419197082515	1245.964965820313	406.6853637695314	-22.61154365539557	974.6817626953127	482.9461059570314	-60.93345260620124	967.3519287109377	389.7970581054689	-66.01023101806648	958.5175781250002	446.806365966797	50.83557510375972	770.1304931640627	459.963836669922	-8.762011528015201	764.3246459960939	511.1180725097657	75.83030700683589	680.1575927734376	484.4844360351564	-19.12652397155768	695.8580322265626	516.6964721679689	
103	1.02	101.2254638671875	818.0474853515627	89.7277755737305	-99.87859344482428	848.745056152344	207.9979858398438	-92.73757934570318	842.7683715820315	303.1031494140626	133.8500671386718	817.908142089844	356.5460815429688	3.945566415786739	753.5750732421876	44.53794097900391	-92.86591339111331	419.7254638671876	115.1245803833008	-73.30723571777348	414.1445617675782	254.7859497070313	-122.9729995727539	371.7708129882813	112.4446563720703	-64.42945098876956	356.1268615722657	161.1502227783203	-266.9789123535157	108.1654052734375	150.710693359375	-240.381561279297	112.0986709594727	238.193603515625	-315.7153625488282	83.30059051513673	195.6078643798828	-148.0308685302735	16.56943893432618	233.6901245117188	-131.2516632080079	35.4963493347168	178.3928680419922	-177.2847747802735	23.67720603942871	121.166259765625	75.94297790527339	724.1492309570314	417.1330566406251	189.2434539794922	407.9909057617189	354.2771606445313	220.9933776855469	403.4062500000001	214.4464721679688	211.428466796875	361.1074218750001	354.1167297363282	267.6456298828125	382.2714843750001	294.6755981445314	318.5019226074219	63.28723526000978	314.2443847656251	340.64013671875	104.4509811401367	233.6463775634766	303.7012634277344	18.24589157104493	263.612762451172	465.5722045898438	97.08530426025393	241.4402160644532	467.0897827148438	108.5684432983399	294.1701965332032	428.9064025878907	71.43111419677736	336.0808410644532	-33.17927932739261	1292.13671875	231.2841796875001	-99.58473205566412	1102.145141601563	222.9109954833985	145.3088531494141	1006.872985839844	232.6062469482423	95.47648620605467	1220.996337890625	234.3104705810547	-98.79022979736332	1130.043090820313	149.5140228271485	-58.32063293457035	1249.792602539063	151.4099578857422	-20.68754386901857	1257.591186523438	92.61072540283205	39.60760498046875	1247.9677734375	55.56117630004885	33.71689987182618	984.627868652344	-24.16816329956055	3.005163669586175	952.7772216796877	56.31435012817384	0.1161691993474953	949.7039794921877	6.54578733444214	166.4461364746094	807.6737060546877	-2.046571254730205	111.9112014770508	788.9698486328127	-58.92976760864258	222.1397705078126	739.0386962890626	-23.81549263000486	142.7845153808594	716.0438842773439	-71.88652038574219	-103.3953399658204	1124.622924804688	321.2736206054688	-62.56960678100591	1246.53369140625	313.0508117675782	-38.75732040405278	1250.604370117188	371.4871215820313	36.04360198974605	1245.399047851563	407.8387451171876	-10.40358829498297	974.0596313476565	483.8170471191407	-48.25193023681647	966.9355468750002	390.4208068847657	-53.4805984497071	958.0706787109377	447.3355407714845	62.60678863525386	769.225280761719	461.593963623047	2.36816358566278	763.6521606445314	511.9406738281251	86.90676879882808	679.1317138671876	486.4631652832032	-8.430502891540593	695.2852783203126	517.3245239257814	
104	1.03	114.9616088867188	817.9588012695315	89.66388702392581	-85.49376678466801	848.4508056640627	209.9703216552735	-78.25933074951178	842.4337158203127	304.2435302734376	148.8895874023437	817.4065551757815	357.3845520019532	17.20476722717285	753.5980834960939	45.62083053588868	-81.24499511718753	420.4365539550782	114.7597122192383	-60.89920043945317	413.8585510253907	254.3817596435547	-112.3507766723633	372.9285583496094	111.9927978515625	-53.42877578735355	355.6305847167969	160.2596130371094	-263.0508728027344	112.996826171875	149.8208160400391	-235.6352844238282	115.8920974731446	236.9202880859375	-312.2668762207032	89.88995361328126	194.7444152832032	-148.3081359863282	16.30241966247559	233.7561645507813	-131.0948486328126	35.3268165588379	178.6134948730469	-176.4862518310547	23.69533729553223	121.1289215087891	90.04464721679683	722.9706420898439	417.6900634765626	202.7469940185547	407.2000427246095	354.3392639160157	233.5649108886719	402.6121215820314	214.6634674072266	224.7640991210938	360.1650085449219	354.0340270996094	280.4455871582031	381.0440368652344	293.9150695800782	328.2137451171875	61.96234512329103	313.7932739257814	349.9633483886719	102.5009918212891	232.7780609130861	312.000244140625	17.57479476928711	263.642303466797	474.7669677734376	92.67774200439455	238.8933410644532	477.0111389160157	104.0756988525391	291.553680419922	438.8439025878907	67.97309875488283	334.0729980468751	-19.88874816894534	1291.3193359375	232.5801239013672	-85.8074111938477	1101.214477539063	224.467758178711	159.1250915527344	1006.411804199219	233.6339569091798	109.0463562011719	1220.426879882813	235.5205078125001	-85.2353210449219	1129.109008789063	150.95263671875	-45.00099945068362	1248.993408203125	152.7457580566407	-7.426220893859877	1256.737915039063	93.89257812500001	52.81591415405274	1247.11083984375	56.76016235351565	46.95573806762696	983.7112426757815	-22.45692825317382	16.87932586669922	951.8068847656252	58.31967544555665	13.58952236175537	948.804138183594	8.595277786254886	180.4619445800782	807.3255004882815	-0.9821256399154444	125.7000274658203	788.3273925781252	-57.65652084350586	236.2094268798829	738.7524414062501	-22.85709571838376	156.8219299316407	715.5704345703126	-70.78258514404297	-89.50503540039068	1123.760864257813	322.5537719726563	-49.00611495971685	1245.791259765625	314.4128417968751	-25.13985633850103	1250.078002929688	372.7463989257813	49.70013809204098	1245.044921875	409.1191406250001	2.192078113555849	973.6595458984377	484.8287048339845	-35.48004150390631	966.8162841796877	391.3038940429689	-40.68519973754889	957.8948974609377	448.1248168945314	74.55010223388668	768.528015136719	463.1109313964845	13.79299640655512	763.1664428710939	512.8035278320314	98.17801666259763	678.2897338867189	488.1631469726564	2.53158879280084	694.8593139648439	517.9183959960939	
105	1.04	129.181137084961	817.8272705078127	89.79659271240237	-70.82076263427739	848.4160766601565	211.6388854980469	-63.6436271667481	842.2414550781252	305.1948547363282	164.0867004394531	817.1162109375002	358.3228759765626	31.02666473388672	753.5802001953126	46.69284057617189	-68.85417175292972	421.0958251953126	114.2823104858399	-47.54544448852543	413.3193359375001	253.8020019531251	-101.0166015625	374.0433044433594	111.4478225708008	-41.44249343872073	354.9776916503907	159.0464630126953	-258.3973083496094	118.1014785766602	148.9532470703125	-229.975570678711	119.7188186645508	235.5477294921875	-307.8568420410157	96.95729064941409	194.0039215087891	-148.7068481445313	16.14705657958985	233.871078491211	-131.0020751953126	35.09381484985352	178.8799743652344	-175.6921844482422	23.75467872619629	121.1479034423828	104.4273223876953	722.1756591796876	418.3592834472657	216.5216217041016	406.7168579101564	354.5017395019532	246.5633392333985	402.0580444335939	215.178436279297	238.0712738037109	359.3745727539063	354.0692749023439	293.3162231445312	379.7455749511719	293.3934936523439	335.9338989257812	60.35313796997072	313.3476867675782	357.7149658203126	100.0102767944336	231.9354553222657	318.0232238769531	16.81232643127442	263.6825256347657	482.1658020019532	86.63536834716798	236.3913421630861	485.2129516601563	97.95322418212893	288.9860229492189	446.7582702636719	63.33599090576173	332.167938232422	-6.54273796081546	1290.689086914063	234.0402221679688	-71.87858581542973	1100.420043945313	226.1995239257813	173.2141571044922	1006.278442382813	234.7301330566407	122.7319412231445	1220.135620117188	236.7722778320313	-71.58953857421878	1128.257568359375	152.576644897461	-31.69642066955569	1248.307250976563	154.2774047851563	5.744568347930898	1256.027221679688	95.32130432128908	65.90485382080078	1246.443725585938	58.04253387451174	60.04403305053712	982.935974121094	-20.55844688415527	30.65715980529785	951.0345458984377	60.56468963623049	26.85512924194337	948.095397949219	10.89479064941407	194.1365661621094	806.9834594726565	0.170173257589364	139.050033569336	787.7087402343752	-56.214599609375	249.849105834961	738.4097290039064	-21.83985900878903	170.3211059570313	715.0711669921876	-69.48900604248047	-75.41075897216803	1123.05615234375	324.0331420898438	-35.30002593994145	1245.232543945313	315.9632263183594	-11.31050395965581	1249.7509765625	374.1881103515626	63.60882568359371	1244.902099609375	410.5200195312501	15.19290256500238	973.4783325195315	485.9778747558595	-22.57954216003423	966.9812011718752	392.4331665039064	-27.60931777954108	957.9846801757815	449.1691284179689	86.66926574707027	768.0312500000002	464.5051269531251	25.53747177124018	762.8734741210939	513.7304687500001	109.6522598266601	677.6240234375001	489.5762329101564	13.78748798370355	694.5911865234376	518.5242309570314	
